<?xml version="1.0" standalone="no"?>
<!DOCTYPE svg PUBLIC "-//W3C//DTD SVG 20010904//EN"
 "http://www.w3.org/TR/2001/REC-SVG-20010904/DTD/svg10.dtd">
<svg version="1.0" xmlns="http://www.w3.org/2000/svg"
 width="260.000000pt" height="260.000000pt" viewBox="0 0 260.000000 260.000000"
 preserveAspectRatio="xMidYMid meet">
<metadata>
Created by potrace 1.11, written by Peter Selinger 2001-2013
</metadata>
<g transform="translate(0.000000,260.000000) scale(0.100000,-0.100000)"
fill="#000000" stroke="none">
<path d="M526 2572 c21 -15 152 -107 289 -203 l250 -174 -532 -3 -533 -2 0
-170 0 -170 781 0 781 0 516 -360 517 -360 3 212 c2 163 -1 214 -10 219 -7 4
-346 240 -752 523 l-740 516 -304 0 -305 0 39 -28z"/>
<path d="M160 1085 l0 -635 150 0 150 0 0 635 0 635 -150 0 -150 0 0 -635z"/>
<path d="M620 1085 l0 -637 318 4 c336 5 365 9 466 60 145 74 227 257 182 409
-24 85 -89 142 -210 183 -16 6 -11 11 31 31 69 31 128 94 149 157 20 60 15
163 -11 224 -21 51 -79 110 -136 139 -100 52 -143 57 -476 62 l-313 5 0 -637z
m579 397 c50 -25 74 -63 78 -124 5 -66 -18 -114 -67 -143 -29 -17 -57 -21
-167 -23 l-133 -4 0 156 0 156 128 0 c101 0 134 -4 161 -18z m12 -502 c19 -5
48 -23 64 -40 25 -26 30 -40 33 -93 4 -79 -18 -122 -78 -154 -39 -21 -57 -23
-182 -23 l-138 0 0 160 0 160 133 0 c72 0 148 -5 168 -10z"/>
<path d="M0 170 l0 -170 1020 0 1020 0 0 170 0 170 -1020 0 -1020 0 0 -170z"/>
</g>
</svg>
